<?xml version="1.0" encoding="utf-8"?>
<!-- Generator: Adobe Illustrator 19.0.0, SVG Export Plug-In . SVG Version: 6.00 Build 0)  -->
<svg version="1.1" id="Layer_1" xmlns="http://www.w3.org/2000/svg" xmlns:xlink="http://www.w3.org/1999/xlink" x="0px" y="0px"
	 viewBox="0 0 170 60" style="enable-background:new 0 0 170 60;" xml:space="preserve">
<style type="text/css">
	.st0{fill:#3B77BC;}
</style>
<g id="XMLID_9_">
	<path id="XMLID_634_" class="st0" d="M54.1,35.7l1.6-2.2c1.1,1.2,2.8,2.2,5,2.2c2.3,0,3.2-1.1,3.2-2.2c0-3.3-9.2-1.3-9.2-7.1
		c0-2.6,2.3-4.7,5.8-4.7c2.4,0,4.5,0.8,5.9,2.2l-1.6,2.1c-1.3-1.3-2.9-1.8-4.6-1.8c-1.6,0-2.7,0.8-2.7,2c0,3,9.2,1.1,9.2,7
		c0,2.6-1.9,4.9-6.1,4.9C57.7,38.3,55.5,37.2,54.1,35.7"/>
	<path id="XMLID_633_" class="st0" d="M77,38v-7.2c0-1.8-0.9-2.4-2.3-2.4c-1.3,0-2.4,0.8-2.9,1.5v8h-2.5V26.5h2.5V28
		c0.8-0.9,2.3-1.8,4.1-1.8c2.5,0,3.7,1.3,3.7,3.7V38H77z"/>
	<path id="XMLID_628_" class="st0" d="M89.7,38v-1.3c-0.9,1-2.2,1.5-3.7,1.5c-1.9,0-4-1.3-4-3.8c0-2.7,2.1-3.8,4-3.8
		c1.6,0,2.9,0.5,3.7,1.5v-1.7c0-1.3-1.1-2.1-2.7-2.1c-1.3,0-2.4,0.5-3.4,1.5l-1-1.7c1.3-1.3,3-1.9,4.8-1.9c2.6,0,4.8,1.1,4.8,4.1V38
		H89.7z M89.7,35.4v-1.8c-0.6-0.8-1.7-1.2-2.7-1.2c-1.4,0-2.5,0.8-2.5,2.1c0,1.3,1.1,2.1,2.5,2.1C88.1,36.5,89.2,36.1,89.7,35.4"/>
	<path id="XMLID_621_" class="st0" d="M98,36.4v6h-2.5V26.5H98v1.6c0.9-1.1,2.2-1.9,3.7-1.9c3,0,5.1,2.2,5.1,6s-2.1,6-5.1,6
		C100.2,38.3,98.9,37.6,98,36.4 M104.2,32.2c0-2.2-1.3-3.8-3.3-3.8c-1.2,0-2.4,0.7-2.9,1.5v4.5c0.5,0.9,1.8,1.6,2.9,1.6
		C102.9,36,104.2,34.5,104.2,32.2"/>
	<path id="XMLID_619_" class="st0" d="M108.3,35.7l1.6-2.2c1.1,1.2,2.8,2.2,5,2.2c2.3,0,3.2-1.1,3.2-2.2c0-3.3-9.2-1.3-9.2-7.1
		c0-2.6,2.3-4.7,5.8-4.7c2.4,0,4.5,0.8,5.9,2.2l-1.6,2.1c-1.3-1.3-2.9-1.8-4.6-1.8c-1.6,0-2.7,0.8-2.7,2c0,3,9.2,1.1,9.2,7
		c0,2.6-1.9,4.9-6.1,4.9C111.8,38.3,109.7,37.2,108.3,35.7"/>
	<path id="XMLID_618_" class="st0" d="M122.7,32.2c0-3.5,2.4-6,5.9-6c2.3,0,3.6,1,4.4,2l-1.6,1.5c-0.6-0.9-1.5-1.3-2.6-1.3
		c-2.1,0-3.5,1.6-3.5,3.8c0,2.2,1.4,3.8,3.5,3.8c1.1,0,2-0.5,2.6-1.4l1.6,1.5c-0.8,1.1-2.1,2-4.4,2
		C125.1,38.3,122.7,35.7,122.7,32.2"/>
	<path id="XMLID_26_" class="st0" d="M142.3,38v-1.3c-0.9,1-2.2,1.5-3.7,1.5c-1.9,0-4-1.3-4-3.8c0-2.7,2.1-3.8,4-3.8
		c1.6,0,2.9,0.5,3.7,1.5v-1.7c0-1.3-1.1-2.1-2.7-2.1c-1.3,0-2.4,0.5-3.4,1.5l-1-1.7c1.3-1.3,3-1.9,4.8-1.9c2.6,0,4.8,1.1,4.8,4.1V38
		H142.3z M142.3,35.4v-1.8c-0.6-0.8-1.7-1.2-2.7-1.2c-1.4,0-2.5,0.8-2.5,2.1c0,1.3,1.1,2.1,2.5,2.1
		C140.6,36.5,141.7,36.1,142.3,35.4"/>
	<path id="XMLID_24_" class="st0" d="M155.8,38v-7.2c0-1.8-0.9-2.4-2.3-2.4c-1.3,0-2.4,0.8-2.9,1.5v8H148V26.5h2.5V28
		c0.8-0.9,2.3-1.8,4.1-1.8c2.5,0,3.7,1.3,3.7,3.7V38H155.8z"/>
	<path id="XMLID_19_" class="st0" d="M29.6,15.8c-8.2,0-14.8,6.6-14.8,14.8s6.6,14.8,14.8,14.8s14.8-6.6,14.8-14.8
		S37.8,15.8,29.6,15.8 M29.6,44.4c-7.6,0-13.8-6.2-13.8-13.8S22,16.8,29.6,16.8c7.6,0,13.8,6.2,13.8,13.8S37.2,44.4,29.6,44.4"/>
	<path id="XMLID_14_" class="st0" d="M27.7,24.2h-3.4c-0.5,0-1,0.4-1,1v3.4c0,0.5,0.4,1,1,1h3.4c0.5,0,1-0.4,1-1v-3.4
		C28.6,24.6,28.2,24.2,27.7,24.2"/>
	<path id="XMLID_12_" class="st0" d="M35,24.2h-3.4c-0.5,0-1,0.4-1,1v3.4c0,0.5,0.4,1,1,1H35c0.5,0,1-0.4,1-1v-3.4
		C36,24.6,35.6,24.2,35,24.2"/>
	<path id="XMLID_11_" class="st0" d="M27.7,31.5h-3.4c-0.5,0-1,0.4-1,1V36c0,0.5,0.4,1,1,1h3.4c0.5,0,1-0.4,1-1v-3.4
		C28.6,32,28.2,31.5,27.7,31.5"/>
</g>
</svg>
